<svg width="900" height="376" viewBox="0 0 900 376" fill="none" xmlns="http://www.w3.org/2000/svg">
<g clip-path="url(#clip0_225_2)">
<path d="M0 129L25 139C50 149 100 169 150 168.3C200 167.7 250 146.3 300 129.7C350 113 400 101 450 109.2C500 117.3 550 145.7 600 166.3C650 187 700 200 750 195.8C800 191.7 850 170.3 875 159.7L900 149V377H875C850 377 800 377 750 377C700 377 650 377 600 377C550 377 500 377 450 377C400 377 350 377 300 377C250 377 200 377 150 377C100 377 50 377 25 377H0V129Z" fill="#EC8DB5"/>
<path d="M0 283L25 276.2C50 269.3 100 255.7 150 243.7C200 231.7 250 221.3 300 224.5C350 227.7 400 244.3 450 254.3C500 264.3 550 267.7 600 266.3C650 265 700 259 750 254.5C800 250 850 247 875 245.5L900 244V377H875C850 377 800 377 750 377C700 377 650 377 600 377C550 377 500 377 450 377C400 377 350 377 300 377C250 377 200 377 150 377C100 377 50 377 25 377H0V283Z" fill="#E86EA1"/>
</g>
<defs>
<clipPath id="clip0_225_2">
<rect width="900" height="376" fill="white"/>
</clipPath>
</defs>
</svg>
