<svg width="900" height="351" viewBox="0 0 900 351" fill="none" xmlns="http://www.w3.org/2000/svg">
<g clip-path="url(#clip0_225_2)">
<path d="M0 134.444L25 144.444C50 154.444 100 174.444 150 173.744C200 173.144 250 151.744 300 135.144C350 118.444 400 106.444 450 114.644C500 122.744 550 151.144 600 171.744C650 192.444 700 205.444 750 201.244C800 197.144 850 175.744 875 165.144L900 154.444V382.444H875C850 382.444 800 382.444 750 382.444C700 382.444 650 382.444 600 382.444C550 382.444 500 382.444 450 382.444C400 382.444 350 382.444 300 382.444C250 382.444 200 382.444 150 382.444C100 382.444 50 382.444 25 382.444H0V134.444Z" fill="#EC8DB5"/>
<path d="M0 258L25 251.2C50 244.3 100 230.7 150 218.7C200 206.7 250 196.3 300 199.5C350 202.7 400 219.3 450 229.3C500 239.3 550 242.7 600 241.3C650 240 700 234 750 229.5C800 225 850 222 875 220.5L900 219V352H875C850 352 800 352 750 352C700 352 650 352 600 352C550 352 500 352 450 352C400 352 350 352 300 352C250 352 200 352 150 352C100 352 50 352 25 352H0V258Z" fill="#E86EA1"/>
</g>
<defs>
<clipPath id="clip0_225_2">
<rect width="900" height="351" fill="white"/>
</clipPath>
</defs>
</svg>
