<svg width="900" height="270" viewBox="0 0 900 270" fill="none" xmlns="http://www.w3.org/2000/svg">
<path d="M0 23.0001L25 33.0001C50 43.0001 100 63.0001 150 62.3001C200 61.7001 250 40.3001 300 23.7001C350 7.00008 400 -4.99991 450 3.20009C500 11.3001 550 39.7001 600 60.3001C650 81.0001 700 94.0001 750 89.8001C800 85.7001 850 64.3001 875 53.7001L900 43.0001V271H875C850 271 800 271 750 271C700 271 650 271 600 271C550 271 500 271 450 271C400 271 350 271 300 271C250 271 200 271 150 271C100 271 50 271 25 271H0V23.0001Z" fill="#EC8DB5"/>
</svg>
